<svg width="223" height="60" viewBox="0 0 223 60" fill="none" xmlns="http://www.w3.org/2000/svg">
<path d="M3.81641 48.2783V16.0928H11.2651V48.2783H3.81641ZM148.311 48.6462C145.399 48.6462 143.131 47.9105 141.506 46.4392C139.881 44.9372 139.069 42.7148 139.069 39.7722V18.0699H146.242V39.6802C146.242 40.7223 146.518 41.5348 147.07 42.1171C147.621 42.6689 148.372 42.9447 149.323 42.9447C150.457 42.9447 151.422 42.6383 152.219 42.0251L154.15 47.0829C153.415 47.6041 152.526 48.0025 151.484 48.2783C150.472 48.5236 149.415 48.6462 148.311 48.6462ZM135.253 29.6107V24.0932H152.403V29.6107H135.253ZM210.192 48.6462C208.966 48.6462 207.908 48.2324 207.019 47.4047C206.161 46.5465 205.732 45.4582 205.732 44.1402C205.732 42.8222 206.161 41.7647 207.019 40.9676C207.908 40.14 208.966 39.7262 210.192 39.7262C211.449 39.7262 212.506 40.14 213.364 40.9676C214.222 41.7647 214.652 42.8222 214.652 44.1402C214.652 45.4582 214.222 46.5465 213.364 47.4047C212.506 48.2324 211.449 48.6462 210.192 48.6462Z" fill="white"/>
<path d="M33.4327 23.1736C35.3944 23.1736 37.1416 23.572 38.6744 24.3691C40.2377 25.1353 41.4637 26.3308 42.3527 27.9555C43.2417 29.5493 43.6861 31.6032 43.6861 34.1167V48.2783H36.5133V35.2202C36.5133 33.2277 36.0689 31.7563 35.1799 30.8062C34.3217 29.856 33.0955 29.3808 31.5016 29.3808C30.3675 29.3808 29.3406 29.6261 28.421 30.1165C27.532 30.5763 26.8271 31.2966 26.3059 32.2775C25.8155 33.2585 25.5702 34.5151 25.5702 36.0478V48.2783H18.3975V23.5414H25.2484V30.3924L23.961 28.3233C24.85 26.668 26.122 25.396 27.7773 24.507C29.4325 23.618 31.3177 23.1736 33.4327 23.1736ZM60.9888 48.6462C58.6591 48.6462 56.5594 48.125 54.6897 47.0829C52.8197 46.0099 51.3332 44.5234 50.2297 42.6229C49.1567 40.7223 48.6204 38.4847 48.6204 35.9099C48.6204 33.3045 49.1567 31.0515 50.2297 29.1509C51.3332 27.2504 52.8197 25.779 54.6897 24.7369C56.5594 23.6948 58.6591 23.1736 60.9888 23.1736C63.0731 23.1736 64.8971 23.6334 66.4604 24.553C68.0237 25.4726 69.2343 26.8674 70.0928 28.7371C70.951 30.6069 71.3802 32.9978 71.3802 35.9099C71.3802 38.7912 70.9664 41.1821 70.1388 43.0827C69.3111 44.9524 68.1157 46.3472 66.5524 47.2668C65.0196 48.1864 63.1651 48.6462 60.9888 48.6462ZM62.2303 42.7608C63.395 42.7608 64.4525 42.4849 65.4029 41.9332C66.353 41.3814 67.1041 40.5998 67.6559 39.5882C68.2382 38.5461 68.5295 37.3198 68.5295 35.9099C68.5295 34.4691 68.2382 33.2431 67.6559 32.2315C67.1041 31.22 66.353 30.4383 65.4029 29.8866C64.4525 29.3348 63.395 29.059 62.2303 29.059C61.0348 29.059 59.9619 29.3348 59.0117 29.8866C58.0613 30.4383 57.2951 31.22 56.7128 32.2315C56.161 33.2431 55.8851 34.4691 55.8851 35.9099C55.8851 37.3198 56.161 38.5461 56.7128 39.5882C57.2951 40.5998 58.0613 41.3814 59.0117 41.9332C59.9619 42.4849 61.0348 42.7608 62.2303 42.7608ZM68.7134 48.2783V43.2206L68.8513 35.8639L68.3915 28.5532V14.1617H75.5643V48.2783H68.7134ZM92.6401 48.6462C90.5865 48.6462 88.7473 48.2478 87.1226 47.4507C85.5287 46.6537 84.2873 45.443 83.3983 43.8183C82.5093 42.1631 82.0649 40.0634 82.0649 37.5192V23.5414H89.2377V36.4616C89.2377 38.5153 89.6669 40.0326 90.5251 41.0136C91.4141 41.9638 92.6555 42.439 94.2494 42.439C95.3529 42.439 96.3339 42.2091 97.1921 41.7493C98.0503 41.2589 98.7248 40.5232 99.2152 39.5423C99.7056 38.5307 99.9509 37.2739 99.9509 35.772V23.5414H107.124V48.2783H100.319V41.4734L101.56 43.4505C100.733 45.1671 99.5065 46.4697 97.8818 47.3588C96.2879 48.217 94.5407 48.6462 92.6401 48.6462ZM122.091 48.6462C119.976 48.6462 117.938 48.4009 115.976 47.9105C114.045 47.3893 112.512 46.7456 111.378 45.9794L113.769 40.8297C114.903 41.5348 116.236 42.1171 117.769 42.5769C119.332 43.0061 120.865 43.2206 122.367 43.2206C124.022 43.2206 125.187 43.0213 125.861 42.6229C126.566 42.2245 126.919 41.6727 126.919 40.9676C126.919 40.3853 126.643 39.9561 126.091 39.6802C125.57 39.3737 124.865 39.1438 123.976 38.9905C123.087 38.8372 122.106 38.6841 121.034 38.5307C119.991 38.3774 118.934 38.1783 117.861 37.933C116.788 37.6571 115.807 37.2587 114.918 36.7375C114.029 36.2163 113.309 35.5115 112.757 34.6225C112.236 33.7335 111.976 32.584 111.976 31.174C111.976 29.6107 112.42 28.2313 113.309 27.0359C114.229 25.8404 115.547 24.9054 117.263 24.2311C118.98 23.526 121.034 23.1736 123.424 23.1736C125.11 23.1736 126.827 23.3575 128.574 23.7254C130.321 24.0932 131.777 24.6295 132.942 25.3346L130.551 30.4383C129.356 29.7333 128.145 29.2583 126.919 29.013C125.723 28.7371 124.559 28.5992 123.424 28.5992C121.83 28.5992 120.666 28.8137 119.93 29.2429C119.194 29.6721 118.827 30.2239 118.827 30.8981C118.827 31.5113 119.087 31.9711 119.608 32.2775C120.16 32.584 120.88 32.8293 121.769 33.0132C122.658 33.1971 123.624 33.3656 124.666 33.519C125.739 33.6415 126.812 33.8408 127.884 34.1167C128.957 34.3926 129.923 34.791 130.781 35.3122C131.67 35.8025 132.39 36.4922 132.942 37.3812C133.494 38.2394 133.77 39.3737 133.77 40.7837C133.77 42.3164 133.31 43.6804 132.39 44.8759C131.471 46.0408 130.137 46.9603 128.39 47.6346C126.674 48.3089 124.574 48.6462 122.091 48.6462ZM158.177 48.2783V23.5414H165.028V30.5303L164.062 28.5072C164.798 26.76 165.978 25.442 167.602 24.553C169.227 23.6334 171.204 23.1736 173.534 23.1736V29.7946C173.227 29.7641 172.951 29.7487 172.706 29.7487C172.461 29.7181 172.2 29.7027 171.924 29.7027C169.963 29.7027 168.369 30.2698 167.143 31.4039C165.947 32.5074 165.349 34.2392 165.349 36.5996V48.2783H158.177ZM189.39 48.6462C186.753 48.6462 184.409 48.0944 182.355 46.9909C180.332 45.8874 178.722 44.3855 177.527 42.4849C176.362 40.5538 175.78 38.3622 175.78 35.9099C175.78 33.427 176.362 31.2354 177.527 29.3348C178.722 27.4037 180.332 25.9018 182.355 24.8289C184.409 23.7254 186.753 23.1736 189.39 23.1736C191.995 23.1736 194.325 23.7254 196.379 24.8289C198.432 25.9018 200.042 27.3883 201.206 29.2889C202.371 31.1894 202.954 33.3964 202.954 35.9099C202.954 38.3622 202.371 40.5538 201.206 42.4849C200.042 44.3855 198.432 45.8874 196.379 46.9909C194.325 48.0944 191.995 48.6462 189.39 48.6462ZM189.39 42.7608C190.585 42.7608 191.658 42.4849 192.608 41.9332C193.558 41.3814 194.31 40.5998 194.861 39.5882C195.413 38.5461 195.689 37.3198 195.689 35.9099C195.689 34.4691 195.413 33.2431 194.861 32.2315C194.31 31.22 193.558 30.4383 192.608 29.8866C191.658 29.3348 190.585 29.059 189.39 29.059C188.194 29.059 187.121 29.3348 186.171 29.8866C185.221 30.4383 184.455 31.22 183.872 32.2315C183.32 33.2431 183.045 34.4691 183.045 35.9099C183.045 37.3198 183.32 38.5461 183.872 39.5882C184.455 40.5998 185.221 41.3814 186.171 41.9332C187.121 42.4849 188.194 42.7608 189.39 42.7608Z" fill="white"/>
<path d="M174.722 4.59794H218.402V22.9897" stroke="white" stroke-width="3"/>
</svg>
